<?xml version="1.0" encoding="utf-8"?>
<!-- Generator: Adobe Illustrator 17.0.0, SVG Export Plug-In . SVG Version: 6.00 Build 0)  -->
<!DOCTYPE svg PUBLIC "-//W3C//DTD SVG 1.1//EN" "http://www.w3.org/Graphics/SVG/1.1/DTD/svg11.dtd">
<svg version="1.1" xmlns="http://www.w3.org/2000/svg" xmlns:xlink="http://www.w3.org/1999/xlink" x="0px" y="0px" width="612px"
	 height="864px" viewBox="0 0 612 864" enable-background="new 0 0 612 864" xml:space="preserve">
<g id="Layer_2">
	<rect fill="#FFFFFF" width="612" height="864"/>
</g>
<g id="Layer_1">
	<g>
	</g>
	<g>
	</g>
	<g>
		<path d="M67.136,56.158v4.255h4.768v1.482h-4.768V69h-1.596V54.676h6.516v1.481H67.136z"/>
		<path d="M76.066,61.04h0.038c0.532-0.703,0.988-1.216,1.976-1.216c0.513,0,0.931,0.171,1.368,0.418l-0.722,1.387
			c-0.304-0.209-0.513-0.399-0.912-0.399c-1.672,0-1.748,2.147-1.748,3.306V69h-1.52v-8.929h1.52V61.04z"/>
		<path d="M80.189,64.555c0-2.622,2.071-4.73,4.692-4.73s4.692,2.109,4.692,4.73s-2.09,4.692-4.692,4.692
			S80.189,67.176,80.189,64.555z M81.709,64.536c0,1.824,1.292,3.306,3.173,3.306c1.88,0,3.172-1.482,3.172-3.306
			c0-1.805-1.292-3.306-3.172-3.306C83.001,61.23,81.709,62.731,81.709,64.536z"/>
		<path d="M93.185,61.04h0.038c0.475-0.741,1.235-1.216,2.147-1.216c1.044,0,1.995,0.551,2.469,1.482
			c0.532-0.988,1.596-1.482,2.679-1.482c2.28,0,2.85,1.862,2.85,3.743V69h-1.52v-5.186c0-1.159-0.076-2.584-1.634-2.584
			c-1.748,0-1.938,1.691-1.938,3.04V69h-1.52v-5.072c0-1.102-0.133-2.698-1.596-2.698c-1.786,0-1.976,1.805-1.976,3.154V69h-1.52
			v-8.929h1.52V61.04z"/>
		<path d="M115.225,69h-1.52v-7.523h-0.931v-1.406h0.931v-3.21h1.52v3.21h1.596v1.406h-1.596V69z"/>
		<path d="M119.708,53.327v7.789l0.038,0.038c0.627-0.855,1.444-1.33,2.546-1.33c2.469,0,3.04,1.786,3.04,3.875V69h-1.52v-5.034
			c0-1.444-0.114-2.736-1.881-2.736c-2.089,0-2.223,1.938-2.223,3.534V69h-1.52V53.327H119.708z"/>
		<path d="M128.98,64.858c0.019,1.653,1.197,2.983,2.926,2.983c1.292,0,2.127-0.779,2.716-1.843l1.292,0.741
			c-0.855,1.596-2.299,2.508-4.123,2.508c-2.66,0-4.369-2.033-4.369-4.598c0-2.64,1.539-4.825,4.331-4.825
			c2.869,0,4.389,2.375,4.237,5.034H128.98z M134.395,63.567c-0.209-1.292-1.292-2.337-2.622-2.337
			c-1.311,0-2.526,1.045-2.716,2.337H134.395z"/>
		<path d="M152.464,69h-1.52v-1.235h-0.038c-0.779,0.988-1.824,1.482-3.077,1.482c-2.622,0-4.274-2.223-4.274-4.692
			c0-2.545,1.615-4.73,4.293-4.73c1.216,0,2.318,0.57,3.059,1.52h0.038v-1.273h1.52V69z M145.112,64.441
			c0,1.748,1.026,3.4,2.925,3.4c1.957,0,2.983-1.577,2.983-3.382c0-1.786-1.121-3.229-3.001-3.229
			C146.251,61.23,145.112,62.769,145.112,64.441z"/>
		<path d="M156.683,65.048c0,1.501,0.171,2.793,2.014,2.793s2.014-1.292,2.014-2.793v-4.977h1.52v5.148
			c0,2.375-0.893,4.027-3.534,4.027s-3.534-1.653-3.534-4.027v-5.148h1.52V65.048z"/>
		<path d="M166.6,69h-1.52v-7.523h-0.931v-1.406h0.931v-3.21h1.52v3.21h1.596v1.406H166.6V69z"/>
		<path d="M171.084,53.327v7.789l0.038,0.038c0.627-0.855,1.444-1.33,2.546-1.33c2.469,0,3.04,1.786,3.04,3.875V69h-1.52v-5.034
			c0-1.444-0.114-2.736-1.881-2.736c-2.089,0-2.223,1.938-2.223,3.534V69h-1.52V53.327H171.084z"/>
		<path d="M178.798,64.555c0-2.622,2.071-4.73,4.692-4.73c2.622,0,4.692,2.109,4.692,4.73s-2.09,4.692-4.692,4.692
			S178.798,67.176,178.798,64.555z M180.318,64.536c0,1.824,1.292,3.306,3.172,3.306c1.881,0,3.173-1.482,3.173-3.306
			c0-1.805-1.292-3.306-3.173-3.306C181.61,61.23,180.318,62.731,180.318,64.536z"/>
		<path d="M191.718,61.04h0.038c0.531-0.703,0.987-1.216,1.976-1.216c0.513,0,0.931,0.171,1.368,0.418l-0.723,1.387
			c-0.304-0.209-0.513-0.399-0.911-0.399c-1.672,0-1.748,2.147-1.748,3.306V69h-1.52v-8.929h1.52V61.04z"/>
		<path d="M200.249,62.142c-0.209-0.475-0.665-0.912-1.216-0.912c-0.532,0-1.103,0.418-1.103,0.988c0,0.817,1.026,1.121,2.071,1.558
			s2.07,1.064,2.07,2.564c0,1.691-1.368,2.907-3.021,2.907c-1.501,0-2.679-0.855-3.153-2.261l1.349-0.57
			c0.38,0.836,0.816,1.425,1.823,1.425c0.817,0,1.444-0.551,1.444-1.368c0-1.995-4.027-1.311-4.027-4.122
			c0-1.501,1.216-2.527,2.659-2.527c1.026,0,1.976,0.722,2.375,1.653L200.249,62.142z"/>
		<path d="M209.273,64.555c0-2.622,2.071-4.73,4.692-4.73c2.622,0,4.692,2.109,4.692,4.73s-2.09,4.692-4.692,4.692
			S209.273,67.176,209.273,64.555z M210.794,64.536c0,1.824,1.291,3.306,3.172,3.306s3.173-1.482,3.173-3.306
			c0-1.805-1.292-3.306-3.173-3.306S210.794,62.731,210.794,64.536z"/>
		<path d="M222.402,69h-1.52v-7.523h-0.836v-1.406h0.836v-3.552c0-0.741,0-1.672,0.398-2.318c0.494-0.798,1.387-1.121,2.299-1.121
			c0.361,0,0.722,0.076,1.083,0.19v1.539c-0.342-0.114-0.646-0.209-1.026-0.209c-1.234,0-1.234,0.874-1.234,2.451v3.021h2.261v1.406
			h-2.261V69z"/>
		<path d="M234.543,69h-1.52v-7.523h-0.931v-1.406h0.931v-3.21h1.52v3.21h1.597v1.406h-1.597V69z"/>
		<path d="M239.027,53.327v7.789l0.038,0.038c0.627-0.855,1.443-1.33,2.545-1.33c2.47,0,3.04,1.786,3.04,3.875V69h-1.52v-5.034
			c0-1.444-0.114-2.736-1.881-2.736c-2.09,0-2.223,1.938-2.223,3.534V69h-1.521V53.327H239.027z"/>
		<path d="M248.3,64.858c0.019,1.653,1.196,2.983,2.925,2.983c1.292,0,2.128-0.779,2.717-1.843l1.292,0.741
			c-0.854,1.596-2.299,2.508-4.122,2.508c-2.66,0-4.37-2.033-4.37-4.598c0-2.64,1.539-4.825,4.332-4.825
			c2.868,0,4.388,2.375,4.236,5.034H248.3z M253.714,63.567c-0.209-1.292-1.292-2.337-2.622-2.337c-1.311,0-2.526,1.045-2.717,2.337
			H253.714z"/>
		<path d="M265.703,54.068l9.327,11.702l1.748-11.094h1.596l-2.355,14.97l-9.328-11.684L264.943,69h-1.596L265.703,54.068z"/>
		<path d="M280.522,64.858c-0.246,1.653,0.723,2.983,2.451,2.983c1.292,0,2.241-0.779,3.001-1.843l1.179,0.741
			c-1.103,1.596-2.698,2.508-4.521,2.508c-2.66,0-4.047-2.033-3.647-4.598c0.418-2.64,2.317-4.825,5.11-4.825
			c2.868,0,4.008,2.375,3.438,5.034H280.522z M286.127,63.567c0-1.292-0.912-2.337-2.241-2.337c-1.312,0-2.698,1.045-3.097,2.337
			H286.127z"/>
		<path d="M292.397,66.112l3.838-6.725l1.729,6.725l3.609-6.041h1.729l-5.928,9.556l-1.71-6.649l-3.799,6.649l-2.888-9.556h1.729
			L292.397,66.112z"/>
		<path d="M309.08,54.676h1.842l2.641,6.383l4.654-6.383h1.843l-5.983,8.168L313.107,69h-1.596l0.969-6.155L309.08,54.676z"/>
		<path d="M317.383,64.555c0.418-2.622,2.831-4.73,5.452-4.73c2.622,0,4.351,2.109,3.933,4.73s-2.83,4.692-5.434,4.692
			C318.731,69.247,316.965,67.176,317.383,64.555z M318.902,64.536c-0.284,1.824,0.779,3.306,2.66,3.306s3.4-1.482,3.686-3.306
			c0.285-1.805-0.76-3.306-2.641-3.306S319.188,62.731,318.902,64.536z"/>
		<path d="M330.854,61.04h0.038c0.646-0.703,1.196-1.216,2.185-1.216c0.513,0,0.893,0.171,1.292,0.418l-0.95,1.387
			c-0.266-0.209-0.437-0.399-0.836-0.399c-1.672,0-2.09,2.147-2.279,3.306L329.6,69h-1.52l1.405-8.929h1.52L330.854,61.04z"/>
		<path d="M336.857,63.377l3.762-3.306h2.032l-4.407,3.799L341.968,69h-2.014l-2.944-4.065l-0.456,0.399L335.965,69h-1.52
			l2.488-15.673h1.52L336.857,63.377z"/>
		<path d="M353.102,69h-1.596l2.032-12.842h-3.457l0.228-1.481h8.549l-0.228,1.481h-3.495L353.102,69z"/>
		<path d="M359.467,69h-1.52l1.406-8.929h1.52L359.467,69z M361.728,56.709c-0.095,0.608-0.664,1.083-1.253,1.083
			c-0.59,0-1.008-0.475-0.912-1.083c0.095-0.589,0.684-1.083,1.272-1.083S361.823,56.12,361.728,56.709z"/>
		<path d="M365.414,61.04h0.037c0.608-0.741,1.444-1.216,2.356-1.216c1.045,0,1.899,0.551,2.223,1.482
			c0.684-0.988,1.843-1.482,2.925-1.482c2.28,0,2.546,1.862,2.242,3.743L374.343,69h-1.521l0.817-5.186
			c0.189-1.159,0.342-2.584-1.216-2.584c-1.748,0-2.204,1.691-2.432,3.04L369.251,69h-1.52l0.798-5.072
			c0.171-1.102,0.304-2.698-1.159-2.698c-1.785,0-2.261,1.805-2.488,3.154L364.16,69h-1.521l1.406-8.929h1.52L365.414,61.04z"/>
		<path d="M378.656,64.858c-0.246,1.653,0.723,2.983,2.451,2.983c1.292,0,2.241-0.779,3.001-1.843l1.179,0.741
			c-1.103,1.596-2.698,2.508-4.521,2.508c-2.66,0-4.047-2.033-3.647-4.598c0.418-2.64,2.317-4.825,5.11-4.825
			c2.868,0,4.008,2.375,3.438,5.034H378.656z M384.261,63.567c0-1.292-0.912-2.337-2.241-2.337c-1.312,0-2.698,1.045-3.097,2.337
			H384.261z"/>
		<path d="M391.785,62.142c-0.133-0.475-0.513-0.912-1.063-0.912c-0.532,0-1.178,0.418-1.254,0.988
			c-0.133,0.817,0.836,1.121,1.824,1.558c0.969,0.437,1.899,1.064,1.652,2.564c-0.266,1.691-1.823,2.907-3.477,2.907
			c-1.501,0-2.546-0.855-2.793-2.261l1.444-0.57c0.247,0.836,0.589,1.425,1.596,1.425c0.816,0,1.52-0.551,1.652-1.368
			c0.323-1.995-3.818-1.311-3.381-4.122c0.247-1.501,1.634-2.527,3.077-2.527c1.026,0,1.843,0.722,2.108,1.653L391.785,62.142z"/>
		<path d="M401.59,53.327h1.52v8.017h0.038c0.722-0.95,1.843-1.52,3.059-1.52c2.659,0,4.293,2.185,4.293,4.711
			c0,2.489-1.652,4.711-4.274,4.711c-1.234,0-2.355-0.513-3.077-1.482h-0.038V69h-1.52V53.327z M403.033,64.441
			c0,1.748,1.026,3.4,2.926,3.4c1.957,0,2.982-1.577,2.982-3.382c0-1.786-1.121-3.229-3.002-3.229
			C404.173,61.23,403.033,62.769,403.033,64.441z"/>
		<path d="M413.389,64.858c0.019,1.653,1.196,2.983,2.925,2.983c1.292,0,2.128-0.779,2.717-1.843l1.292,0.741
			c-0.854,1.596-2.299,2.508-4.122,2.508c-2.66,0-4.37-2.033-4.37-4.598c0-2.64,1.539-4.825,4.332-4.825
			c2.868,0,4.388,2.375,4.236,5.034H413.389z M418.803,63.567c-0.209-1.292-1.292-2.337-2.622-2.337
			c-1.311,0-2.526,1.045-2.717,2.337H418.803z"/>
		<path d="M426.1,62.142c-0.209-0.475-0.665-0.912-1.216-0.912c-0.532,0-1.103,0.418-1.103,0.988c0,0.817,1.026,1.121,2.071,1.558
			s2.07,1.064,2.07,2.564c0,1.691-1.368,2.907-3.021,2.907c-1.501,0-2.679-0.855-3.153-2.261l1.349-0.57
			c0.38,0.836,0.816,1.425,1.823,1.425c0.817,0,1.444-0.551,1.444-1.368c0-1.995-4.027-1.311-4.027-4.122
			c0-1.501,1.216-2.527,2.659-2.527c1.026,0,1.976,0.722,2.375,1.653L426.1,62.142z"/>
		<path d="M431.666,69h-1.521v-7.523h-0.931v-1.406h0.931v-3.21h1.521v3.21h1.596v1.406h-1.596V69z"/>
		<path d="M438.24,62.142c-0.209-0.475-0.665-0.912-1.216-0.912c-0.532,0-1.103,0.418-1.103,0.988c0,0.817,1.026,1.121,2.071,1.558
			s2.07,1.064,2.07,2.564c0,1.691-1.368,2.907-3.021,2.907c-1.501,0-2.679-0.855-3.153-2.261l1.349-0.57
			c0.38,0.836,0.816,1.425,1.823,1.425c0.817,0,1.444-0.551,1.444-1.368c0-1.995-4.027-1.311-4.027-4.122
			c0-1.501,1.216-2.527,2.659-2.527c1.026,0,1.976,0.722,2.375,1.653L438.24,62.142z"/>
		<path d="M442.971,64.858c0.019,1.653,1.196,2.983,2.925,2.983c1.292,0,2.128-0.779,2.717-1.843l1.292,0.741
			c-0.854,1.596-2.299,2.508-4.122,2.508c-2.66,0-4.37-2.033-4.37-4.598c0-2.64,1.539-4.825,4.332-4.825
			c2.868,0,4.388,2.375,4.236,5.034H442.971z M448.385,63.567c-0.209-1.292-1.292-2.337-2.622-2.337
			c-1.311,0-2.526,1.045-2.717,2.337H448.385z"/>
		<path d="M453.554,69h-1.52V53.327h1.52V69z"/>
		<path d="M457.866,69h-1.52V53.327h1.52V69z"/>
		<path d="M461.458,64.858c0.019,1.653,1.196,2.983,2.925,2.983c1.292,0,2.128-0.779,2.717-1.843l1.292,0.741
			c-0.854,1.596-2.299,2.508-4.122,2.508c-2.66,0-4.37-2.033-4.37-4.598c0-2.64,1.539-4.825,4.332-4.825
			c2.868,0,4.388,2.375,4.236,5.034H461.458z M466.872,63.567c-0.209-1.292-1.292-2.337-2.622-2.337
			c-1.311,0-2.526,1.045-2.717,2.337H466.872z"/>
		<path d="M472.002,61.04h0.038c0.531-0.703,0.987-1.216,1.976-1.216c0.513,0,0.931,0.171,1.368,0.418l-0.723,1.387
			c-0.304-0.209-0.513-0.399-0.911-0.399c-1.672,0-1.748,2.147-1.748,3.306V69h-1.52v-8.929h1.52V61.04z"/>
		<path d="M484.75,69h-1.596l2.261-14.324h2.071c2.717,0,5.129,0.722,4.616,3.951c-0.342,2.204-1.976,3.762-4.198,3.952L491.438,69
			h-1.957l-3.343-6.288h-0.399L484.75,69z M485.967,61.306h0.493c1.805,0,3.686-0.342,4.047-2.564
			c0.36-2.356-1.33-2.584-3.249-2.584h-0.475L485.967,61.306z"/>
		<path d="M494.877,64.858c-0.246,1.653,0.723,2.983,2.451,2.983c1.292,0,2.241-0.779,3.001-1.843l1.179,0.741
			c-1.103,1.596-2.698,2.508-4.521,2.508c-2.66,0-4.047-2.033-3.647-4.598c0.418-2.64,2.317-4.825,5.11-4.825
			c2.868,0,4.008,2.375,3.438,5.034H494.877z M500.481,63.567c0-1.292-0.912-2.337-2.241-2.337c-1.312,0-2.698,1.045-3.097,2.337
			H500.481z"/>
		<path d="M506.752,66.112l3.838-6.725l1.729,6.725l3.609-6.041h1.729l-5.928,9.556l-1.71-6.649l-3.799,6.649l-2.888-9.556h1.729
			L506.752,66.112z"/>
		<path d="M517.658,64.555c0.418-2.622,2.831-4.73,5.452-4.73c2.622,0,4.351,2.109,3.933,4.73s-2.83,4.692-5.434,4.692
			C519.007,69.247,517.24,67.176,517.658,64.555z M519.178,64.536c-0.284,1.824,0.779,3.306,2.66,3.306s3.4-1.482,3.686-3.306
			c0.285-1.805-0.76-3.306-2.641-3.306S519.463,62.731,519.178,64.536z"/>
		<path d="M531.13,61.04h0.038c0.646-0.703,1.196-1.216,2.185-1.216c0.513,0,0.893,0.171,1.292,0.418l-0.95,1.387
			c-0.266-0.209-0.437-0.399-0.836-0.399c-1.672,0-2.09,2.147-2.279,3.306L529.876,69h-1.52l1.405-8.929h1.52L531.13,61.04z"/>
		<path d="M537.133,63.377l3.762-3.306h2.032l-4.407,3.799L542.243,69h-2.014l-2.944-4.065l-0.456,0.399L536.24,69h-1.52
			l2.488-15.673h1.52L537.133,63.377z"/>
	</g>
	<g>
		<path fill="#999999" d="M66.145,789.316v2.756h3.406v1.117h-3.406V798h-1.222v-9.803h4.745v1.119H66.145z"/>
		<path fill="#999999" d="M83.8,793.099c0,2.912-2.301,5.109-5.135,5.109c-2.834,0-5.135-2.197-5.135-5.109
			c0-2.808,2.327-5.108,5.135-5.108S83.8,790.291,83.8,793.099z M82.578,793.099c0-2.157-1.612-3.965-3.913-3.965
			c-2.301,0-3.913,1.808-3.913,3.965c0,2.236,1.794,3.966,3.913,3.966S82.578,795.335,82.578,793.099z"/>
		<path fill="#999999" d="M89.155,788.197v5.785c0,1.6,0.481,3.082,2.366,3.082c1.885,0,2.366-1.482,2.366-3.082v-5.785h1.222v6.201
			c0,2.158-1.339,3.81-3.588,3.81c-2.249,0-3.588-1.651-3.588-3.81v-6.201H89.155z"/>
		<path fill="#999999" d="M99.802,787.729l7.358,7.71v-7.242h1.222v10.205l-7.358-7.709V798h-1.222V787.729z"/>
		<path fill="#999999" d="M113.14,788.197h2.028c3.003,0,5.499,1.586,5.499,4.85c0,3.342-2.444,4.953-5.538,4.953h-1.989V788.197z
			 M114.362,796.882h0.429c2.496,0,4.654-0.937,4.654-3.783c0-2.86-2.158-3.782-4.654-3.782h-0.429V796.882z"/>
		<path fill="#999999" d="M125.008,788.197h5.265v1.119h-4.043v2.742h3.926v1.118h-3.926v3.705h4.043V798h-5.265V788.197z"/>
		<path fill="#999999" d="M140.999,798h-1.482l-2.886-4.146h-0.507V798h-1.222v-9.803h1.482c0.871,0,1.807,0.014,2.587,0.455
			c0.819,0.481,1.287,1.404,1.287,2.34c0,1.404-0.937,2.574-2.354,2.744L140.999,798z M136.124,792.839h0.39
			c1.248,0,2.6-0.233,2.6-1.794c0-1.534-1.456-1.756-2.665-1.756h-0.325V792.839z"/>
		<path fill="#999999" d="M149.436,790.057c-0.364-0.611-0.832-0.923-1.573-0.923c-0.78,0-1.638,0.532-1.638,1.392
			c0,0.766,0.754,1.17,1.365,1.403l0.702,0.272c1.391,0.547,2.431,1.313,2.431,2.951c0,1.781-1.378,3.056-3.133,3.056
			c-1.586,0-2.821-1.17-3.029-2.743l1.235-0.26c-0.013,1.078,0.845,1.859,1.898,1.859c1.053,0,1.807-0.885,1.807-1.912
			c0-1.053-0.845-1.508-1.69-1.858l-0.676-0.286c-1.118-0.48-2.132-1.118-2.132-2.482c0-1.587,1.404-2.535,2.886-2.535
			c1.092,0,1.989,0.532,2.522,1.481L149.436,790.057z"/>
		<path fill="#999999" d="M170.34,793.099c0,2.912-2.301,5.109-5.135,5.109c-2.834,0-5.135-2.197-5.135-5.109
			c0-2.808,2.327-5.108,5.135-5.108S170.34,790.291,170.34,793.099z M169.118,793.099c0-2.157-1.612-3.965-3.913-3.965
			c-2.301,0-3.913,1.808-3.913,3.965c0,2.236,1.794,3.966,3.913,3.966S169.118,795.335,169.118,793.099z"/>
		<path fill="#999999" d="M175.851,789.316v2.756h3.406v1.117h-3.406V798h-1.222v-9.803h4.745v1.119H175.851z"/>
		<path fill="#999999" d="M191.88,792.306c1.053,0,1.924-0.39,1.924-1.573c0-0.988-0.728-1.677-1.703-1.677
			c-0.884,0-1.495,0.56-1.625,1.403h-1.209c0.234-1.611,1.261-2.469,2.873-2.469c1.561,0,2.834,1,2.834,2.639
			c0,0.962-0.416,1.742-1.248,2.21c0.962,0.455,1.392,1.378,1.392,2.431c0,1.834-1.378,2.938-3.134,2.938
			c-1.533,0-2.912-1.015-2.989-2.626h1.183c0.117,0.962,0.962,1.561,1.898,1.561c1.092,0,1.872-0.859,1.872-1.925
			c0-1.248-0.858-1.989-2.067-1.897V792.306z"/>
		<path fill="#999999" d="M199.55,789.316v-1.119h7.059l-6.109,10.011l-0.949-0.585l5.07-8.307H199.55z"/>
		<path fill="#999999" d="M214.863,790.057c-0.364-0.611-0.832-0.923-1.573-0.923c-0.779,0-1.638,0.532-1.638,1.392
			c0,0.766,0.754,1.17,1.365,1.403l0.702,0.272c1.391,0.547,2.431,1.313,2.431,2.951c0,1.781-1.378,3.056-3.133,3.056
			c-1.586,0-2.821-1.17-3.029-2.743l1.235-0.26c-0.014,1.078,0.845,1.859,1.897,1.859c1.054,0,1.808-0.885,1.808-1.912
			c0-1.053-0.846-1.508-1.69-1.858l-0.676-0.286c-1.118-0.48-2.132-1.118-2.132-2.482c0-1.587,1.403-2.535,2.886-2.535
			c1.092,0,1.989,0.532,2.522,1.481L214.863,790.057z"/>
		<path fill="#999999" d="M221.792,798h-1.222v-9.803h1.222V798z"/>
		<path fill="#999999" d="M235.677,793.061v0.389c0,2.691-1.897,4.759-4.641,4.759s-4.953-2.366-4.953-5.083
			c0-2.821,2.262-5.135,5.083-5.135c1.521,0,3.029,0.688,3.991,1.897l-0.858,0.819c-0.702-0.963-1.885-1.6-3.081-1.6
			c-2.197,0-3.913,1.781-3.913,3.979c0,2.055,1.69,4.004,3.81,4.004c1.521,0,3.158-1.312,3.211-2.912h-2.535v-1.117H235.677z"/>
		<path fill="#999999" d="M239.889,787.729l7.358,7.71v-7.242h1.222v10.205l-7.358-7.709V798h-1.222V787.729z"/>
		<path fill="#999999" d="M254.721,795.543L253.603,798h-1.312l4.68-10.219l4.68,10.219h-1.312l-1.118-2.457H254.721z
			 M256.97,790.459l-1.742,3.966h3.484L256.97,790.459z"/>
		<path fill="#999999" d="M266.812,796.882h2.977V798h-4.199v-9.803h1.223V796.882z"/>
		<path fill="#999999" d="M278.068,790.057c-0.364-0.611-0.832-0.923-1.573-0.923c-0.779,0-1.638,0.532-1.638,1.392
			c0,0.766,0.754,1.17,1.365,1.403l0.702,0.272c1.391,0.547,2.431,1.313,2.431,2.951c0,1.781-1.378,3.056-3.133,3.056
			c-1.586,0-2.821-1.17-3.029-2.743l1.235-0.26c-0.014,1.078,0.845,1.859,1.897,1.859c1.054,0,1.808-0.885,1.808-1.912
			c0-1.053-0.846-1.508-1.69-1.858l-0.676-0.286c-1.118-0.48-2.132-1.118-2.132-2.482c0-1.587,1.403-2.535,2.886-2.535
			c1.092,0,1.989,0.532,2.522,1.481L278.068,790.057z"/>
	</g>
	<g opacity="0.75">
		<path fill="#CCCCCC" d="M297.852,456.133l-4.296-4.188l4.188-4.297l4.296,4.188L297.852,456.133z M289.26,447.755l-4.296-4.189
			l4.189-4.295l4.296,4.189L289.26,447.755z M280.668,439.378l-4.296-4.188l4.188-4.296l4.296,4.188L280.668,439.378z M272.077,431
			l-4.296-4.189l4.188-4.296l4.296,4.189L272.077,431z M263.485,422.623l-4.296-4.189l4.188-4.296l4.296,4.189L263.485,422.623z
			 M254.893,414.245l-4.295-4.188l4.188-4.296l4.295,4.188L254.893,414.245z M246.302,405.867l-4.296-4.188l4.188-4.296l4.296,4.188
			L246.302,405.867z M237.71,397.49l-4.296-4.189l4.188-4.296l4.296,4.189L237.71,397.49z M229.118,389.112l-4.296-4.189
			l4.188-4.296l4.296,4.189L229.118,389.112z M220.526,380.735l-4.295-4.189l4.189-4.296l4.295,4.189L220.526,380.735z
			 M211.935,372.357l-4.296-4.188l4.188-4.296l4.296,4.188L211.935,372.357z M203.343,363.979l-4.296-4.189l4.188-4.296l4.296,4.189
			L203.343,363.979z M194.751,355.602l-4.296-4.189l4.188-4.296l4.296,4.189L194.751,355.602z M186.16,347.225l-4.296-4.189
			l4.188-4.296l4.296,4.189L186.16,347.225z M177.568,338.847l-4.296-4.188l4.188-4.296l4.296,4.188L177.568,338.847z
			 M168.977,330.469l-4.296-4.188l4.188-4.296l4.296,4.188L168.977,330.469z M160.385,322.092l-4.296-4.189l4.188-4.296l4.296,4.189
			L160.385,322.092z M151.793,313.714l-4.296-4.189l4.188-4.296l4.296,4.189L151.793,313.714z M143.202,305.337l-4.296-4.189
			l4.188-4.296l4.296,4.189L143.202,305.337z"/>
	</g>
	<g>
		<path fill="#CC0000" d="M158.198,359h-22.799L91,295.201h-7.8V359H64.4V208.202h22.799c13.4,0,27.8,0.2,39.8,7
			c12.6,7.4,19.799,21.6,19.799,36c0,21.6-14.399,39.6-36.199,42.199L158.198,359z M83.2,279.601h6c19.2,0,40-3.6,40-27.6
			c0-23.6-22.399-27-41-27h-5V279.601z"/>
	</g>
	<g>
		<path fill="#CC0000" d="M233.4,136.202h80.999v17.2H252.2v42.2h60.399v17.2H252.2V269.8h62.199V287H233.4V136.202z"/>
	</g>
	<g>
		<path fill="#CC0000" d="M420,235.401h-0.4L402,335h-19.4l30.8-157.198l51.8,118.798l51.799-118.798L547.797,335h-19.398
			l-17.601-99.599h-0.399L465.199,338.2L420,235.401z"/>
	</g>
	<g>
		<path d="M67.068,773.959c0,0.78,0,1.599-0.494,2.249c-0.403,0.533-1.027,0.806-1.69,0.806c-0.65,0-1.248-0.312-1.742-0.728
			l0.611-0.845c0.351,0.324,0.65,0.559,1.157,0.559c1.066,0,1.066-1.274,1.066-2.041v-7.762h1.092V773.959z"/>
		<path d="M75.167,776h-1.04v-0.845h-0.026c-0.533,0.676-1.248,1.014-2.106,1.014c-1.794,0-2.925-1.521-2.925-3.211
			c0-1.742,1.105-3.237,2.938-3.237c0.832,0,1.586,0.39,2.093,1.04h0.026v-0.871h1.04V776z M70.136,772.88
			c0,1.196,0.702,2.327,2.002,2.327c1.339,0,2.041-1.079,2.041-2.314c0-1.222-0.767-2.21-2.054-2.21
			C70.916,770.683,70.136,771.736,70.136,772.88z"/>
		<path d="M80.081,771.307c-0.143-0.325-0.455-0.624-0.832-0.624c-0.364,0-0.754,0.286-0.754,0.676c0,0.56,0.702,0.768,1.417,1.066
			s1.417,0.729,1.417,1.755c0,1.157-0.936,1.989-2.067,1.989c-1.027,0-1.833-0.585-2.158-1.547l0.923-0.39
			c0.26,0.571,0.559,0.975,1.248,0.975c0.559,0,0.988-0.377,0.988-0.937c0-1.364-2.756-0.896-2.756-2.82
			c0-1.027,0.832-1.729,1.82-1.729c0.702,0,1.352,0.494,1.625,1.131L80.081,771.307z"/>
		<path d="M82.771,772.958c0-1.794,1.417-3.237,3.211-3.237c1.794,0,3.211,1.443,3.211,3.237s-1.43,3.211-3.211,3.211
			C84.202,776.169,82.771,774.752,82.771,772.958z M83.812,772.945c0,1.248,0.884,2.262,2.171,2.262
			c1.287,0,2.171-1.014,2.171-2.262c0-1.235-0.884-2.263-2.171-2.263C84.696,770.683,83.812,771.71,83.812,772.945z"/>
		<path d="M92.184,770.631h0.026c0.429-0.585,0.988-0.91,1.742-0.91c1.69,0,2.08,1.222,2.08,2.652V776h-1.04v-3.445
			c0-0.988-0.078-1.872-1.287-1.872c-1.43,0-1.521,1.326-1.521,2.418V776h-1.04v-6.11h1.04V770.631z"/>
		<path d="M104.144,767.212v2.912h3.263v1.014h-3.263V776h-1.092v-9.803h4.459v1.015H104.144z"/>
		<path d="M110.774,770.553h0.026c0.364-0.48,0.676-0.832,1.352-0.832c0.351,0,0.637,0.117,0.936,0.286l-0.494,0.949
			c-0.208-0.144-0.351-0.273-0.624-0.273c-1.144,0-1.196,1.47-1.196,2.263V776h-1.04v-6.11h1.04V770.553z"/>
		<path d="M116.116,767.589c0,0.416-0.338,0.741-0.741,0.741s-0.741-0.325-0.741-0.741c0-0.403,0.338-0.741,0.741-0.741
			S116.116,767.186,116.116,767.589z M115.896,776h-1.04v-6.11h1.04V776z"/>
		<path d="M119.106,773.166c0.013,1.131,0.819,2.041,2.002,2.041c0.884,0,1.456-0.533,1.859-1.261l0.884,0.507
			c-0.585,1.092-1.573,1.716-2.821,1.716c-1.82,0-2.99-1.391-2.99-3.146c0-1.807,1.053-3.302,2.964-3.302
			c1.963,0,3.003,1.625,2.899,3.445H119.106z M122.812,772.282c-0.143-0.885-0.884-1.6-1.794-1.6c-0.897,0-1.729,0.715-1.859,1.6
			H122.812z"/>
		<path d="M130.391,775.155h-0.026c-0.507,0.663-1.274,1.014-2.106,1.014c-1.794,0-2.925-1.521-2.925-3.211
			c0-1.742,1.105-3.237,2.938-3.237c0.819,0,1.599,0.39,2.093,1.04h0.026v-5.486h1.04V776h-1.04V775.155z M126.399,772.88
			c0,1.196,0.702,2.327,2.002,2.327c1.339,0,2.041-1.079,2.041-2.314c0-1.222-0.767-2.21-2.054-2.21
			C127.179,770.683,126.399,771.736,126.399,772.88z"/>
		<path d="M143.976,776h-1.04v-0.845h-0.026c-0.533,0.676-1.248,1.014-2.106,1.014c-1.794,0-2.925-1.521-2.925-3.211
			c0-1.742,1.105-3.237,2.938-3.237c0.832,0,1.586,0.39,2.093,1.04h0.026v-0.871h1.04V776z M138.944,772.88
			c0,1.196,0.702,2.327,2.002,2.327c1.339,0,2.041-1.079,2.041-2.314c0-1.222-0.767-2.21-2.054-2.21
			C139.724,770.683,138.944,771.736,138.944,772.88z"/>
		<path d="M147.459,770.631h0.026c0.429-0.585,0.988-0.91,1.742-0.91c1.69,0,2.08,1.222,2.08,2.652V776h-1.04v-3.445
			c0-0.988-0.078-1.872-1.287-1.872c-1.43,0-1.521,1.326-1.521,2.418V776h-1.04v-6.11h1.04V770.631z"/>
		<path d="M158.341,775.155h-0.026c-0.507,0.663-1.274,1.014-2.106,1.014c-1.794,0-2.925-1.521-2.925-3.211
			c0-1.742,1.105-3.237,2.938-3.237c0.819,0,1.599,0.39,2.093,1.04h0.026v-5.486h1.04V776h-1.04V775.155z M154.35,772.88
			c0,1.196,0.702,2.327,2.002,2.327c1.339,0,2.041-1.079,2.041-2.314c0-1.222-0.767-2.21-2.054-2.21
			C155.129,770.683,154.35,771.736,154.35,772.88z"/>
		<path d="M166.349,766.197h1.846c1.469,0,2.665,0.195,3.822,1.184c1.118,0.962,1.625,2.275,1.625,3.73
			c0,1.431-0.52,2.691-1.599,3.653c-1.17,1.04-2.34,1.235-3.874,1.235h-1.82V766.197z M168.233,774.986
			c1.196,0,2.197-0.169,3.094-1.015c0.806-0.754,1.222-1.781,1.222-2.873c0-1.118-0.429-2.197-1.274-2.938
			c-0.897-0.794-1.885-0.949-3.042-0.949h-0.793v7.774H168.233z"/>
		<path d="M181.26,776h-1.04v-0.845h-0.026c-0.533,0.676-1.248,1.014-2.106,1.014c-1.794,0-2.925-1.521-2.925-3.211
			c0-1.742,1.105-3.237,2.938-3.237c0.832,0,1.586,0.39,2.093,1.04h0.026v-0.871h1.04V776z M176.229,772.88
			c0,1.196,0.702,2.327,2.002,2.327c1.339,0,2.041-1.079,2.041-2.314c0-1.222-0.767-2.21-2.054-2.21
			C177.008,770.683,176.229,771.736,176.229,772.88z"/>
		<path d="M185.731,773.998l1.82-4.108h1.17l-2.99,6.514l-3.003-6.514h1.183L185.731,773.998z"/>
		<path d="M191.698,767.589c0,0.416-0.338,0.741-0.741,0.741c-0.403,0-0.741-0.325-0.741-0.741c0-0.403,0.338-0.741,0.741-0.741
			C191.36,766.848,191.698,767.186,191.698,767.589z M191.477,776h-1.04v-6.11h1.04V776z"/>
		<path d="M198.705,775.155h-0.026c-0.507,0.663-1.274,1.014-2.106,1.014c-1.794,0-2.925-1.521-2.925-3.211
			c0-1.742,1.105-3.237,2.938-3.237c0.819,0,1.599,0.39,2.093,1.04h0.026v-5.486h1.04V776h-1.04V775.155z M194.714,772.88
			c0,1.196,0.702,2.327,2.002,2.327c1.339,0,2.041-1.079,2.041-2.314c0-1.222-0.767-2.21-2.054-2.21
			C195.494,770.683,194.714,771.736,194.714,772.88z"/>
		<path d="M212.875,770.176v-3.979h1.092V776h-1.092v-4.811h-5.019V776h-1.092v-9.803h1.092v3.979H212.875z"/>
		<path d="M217.035,773.166c0.013,1.131,0.819,2.041,2.002,2.041c0.884,0,1.456-0.533,1.859-1.261l0.884,0.507
			c-0.585,1.092-1.573,1.716-2.821,1.716c-1.82,0-2.99-1.391-2.99-3.146c0-1.807,1.053-3.302,2.964-3.302
			c1.963,0,3.003,1.625,2.899,3.445H217.035z M220.74,772.282c-0.143-0.885-0.884-1.6-1.794-1.6c-0.897,0-1.729,0.715-1.859,1.6
			H220.74z"/>
		<path d="M225.237,767.589c0,0.416-0.338,0.741-0.741,0.741s-0.741-0.325-0.741-0.741c0-0.403,0.338-0.741,0.741-0.741
			S225.237,767.186,225.237,767.589z M225.017,776h-1.04v-6.11h1.04V776z"/>
		<path d="M228.748,770.631h0.026c0.429-0.585,0.988-0.91,1.742-0.91c1.69,0,2.08,1.222,2.08,2.652V776h-1.04v-3.445
			c0-0.988-0.078-1.872-1.287-1.872c-1.43,0-1.521,1.326-1.521,2.418V776h-1.04v-6.11h1.04V770.631z"/>
		<path d="M235.611,773.166c0.013,1.131,0.819,2.041,2.002,2.041c0.884,0,1.456-0.533,1.859-1.261l0.884,0.507
			c-0.585,1.092-1.573,1.716-2.821,1.716c-1.82,0-2.99-1.391-2.99-3.146c0-1.807,1.053-3.302,2.964-3.302
			c1.963,0,3.003,1.625,2.899,3.445H235.611z M239.317,772.282c-0.143-0.885-0.884-1.6-1.794-1.6c-0.897,0-1.729,0.715-1.859,1.6
			H239.317z"/>
		<path d="M243.398,770.553h0.026c0.325-0.507,0.845-0.832,1.469-0.832c0.715,0,1.365,0.377,1.69,1.014
			c0.364-0.676,1.092-1.014,1.833-1.014c1.56,0,1.95,1.274,1.95,2.562V776h-1.04v-3.549c0-0.793-0.052-1.769-1.118-1.769
			c-1.196,0-1.326,1.157-1.326,2.08V776h-1.04v-3.471c0-0.755-0.091-1.847-1.092-1.847c-1.222,0-1.353,1.235-1.353,2.158V776h-1.04
			v-6.11h1.04V770.553z"/>
		<path d="M253.383,773.166c0.013,1.131,0.819,2.041,2.002,2.041c0.884,0,1.456-0.533,1.859-1.261l0.884,0.507
			c-0.585,1.092-1.573,1.716-2.821,1.716c-1.82,0-2.99-1.391-2.99-3.146c0-1.807,1.053-3.302,2.964-3.302
			c1.963,0,3.003,1.625,2.899,3.445H253.383z M257.088,772.282c-0.143-0.885-0.884-1.6-1.794-1.6c-0.897,0-1.729,0.715-1.859,1.6
			H257.088z"/>
		<path d="M261.586,767.589c0,0.416-0.338,0.741-0.741,0.741c-0.403,0-0.741-0.325-0.741-0.741c0-0.403,0.338-0.741,0.741-0.741
			C261.248,766.848,261.586,767.186,261.586,767.589z M261.365,776h-1.04v-6.11h1.04V776z"/>
		<path d="M264.575,773.166c0.013,1.131,0.819,2.041,2.002,2.041c0.884,0,1.456-0.533,1.859-1.261l0.884,0.507
			c-0.585,1.092-1.573,1.716-2.821,1.716c-1.82,0-2.99-1.391-2.99-3.146c0-1.807,1.053-3.302,2.964-3.302
			c1.963,0,3.003,1.625,2.899,3.445H264.575z M268.281,772.282c-0.143-0.885-0.884-1.6-1.794-1.6c-0.897,0-1.729,0.715-1.859,1.6
			H268.281z"/>
		<path d="M272.311,770.553h0.026c0.364-0.48,0.676-0.832,1.352-0.832c0.351,0,0.637,0.117,0.936,0.286l-0.494,0.949
			c-0.208-0.144-0.351-0.273-0.624-0.273c-1.145,0-1.196,1.47-1.196,2.263V776h-1.04v-6.11h1.04V770.553z"/>
		<path d="M286.883,770.176v-3.979h1.092V776h-1.092v-4.811h-5.018V776h-1.092v-9.803h1.092v3.979H286.883z"/>
		<path d="M296.101,776h-1.04v-0.845h-0.026c-0.533,0.676-1.248,1.014-2.105,1.014c-1.795,0-2.926-1.521-2.926-3.211
			c0-1.742,1.105-3.237,2.938-3.237c0.832,0,1.586,0.39,2.093,1.04h0.026v-0.871h1.04V776z M291.069,772.88
			c0,1.196,0.702,2.327,2.002,2.327c1.339,0,2.041-1.079,2.041-2.314c0-1.222-0.767-2.21-2.054-2.21
			C291.85,770.683,291.069,771.736,291.069,772.88z"/>
		<path d="M299.584,770.631h0.025c0.43-0.585,0.988-0.91,1.742-0.91c1.69,0,2.08,1.222,2.08,2.652V776h-1.04v-3.445
			c0-0.988-0.078-1.872-1.287-1.872c-1.43,0-1.521,1.326-1.521,2.418V776h-1.04v-6.11h1.04V770.631z"/>
		<path d="M308.398,771.307c-0.143-0.325-0.455-0.624-0.832-0.624c-0.364,0-0.754,0.286-0.754,0.676c0,0.56,0.702,0.768,1.417,1.066
			s1.417,0.729,1.417,1.755c0,1.157-0.936,1.989-2.067,1.989c-1.026,0-1.833-0.585-2.157-1.547l0.923-0.39
			c0.26,0.571,0.559,0.975,1.248,0.975c0.559,0,0.987-0.377,0.987-0.937c0-1.364-2.756-0.896-2.756-2.82
			c0-1.027,0.832-1.729,1.82-1.729c0.702,0,1.352,0.494,1.625,1.131L308.398,771.307z"/>
		<path d="M314.104,771.307c-0.143-0.325-0.455-0.624-0.832-0.624c-0.364,0-0.754,0.286-0.754,0.676c0,0.56,0.702,0.768,1.417,1.066
			s1.417,0.729,1.417,1.755c0,1.157-0.936,1.989-2.067,1.989c-1.026,0-1.833-0.585-2.157-1.547l0.923-0.39
			c0.26,0.571,0.559,0.975,1.248,0.975c0.559,0,0.988-0.377,0.988-0.937c0-1.364-2.757-0.896-2.757-2.82
			c0-1.027,0.832-1.729,1.82-1.729c0.702,0,1.353,0.494,1.625,1.131L314.104,771.307z"/>
		<path d="M316.796,772.958c0-1.794,1.417-3.237,3.211-3.237s3.211,1.443,3.211,3.237s-1.43,3.211-3.211,3.211
			S316.796,774.752,316.796,772.958z M317.836,772.945c0,1.248,0.884,2.262,2.171,2.262s2.171-1.014,2.171-2.262
			c0-1.235-0.884-2.263-2.171-2.263S317.836,771.71,317.836,772.945z"/>
		<path d="M326.208,770.631h0.025c0.43-0.585,0.988-0.91,1.742-0.91c1.69,0,2.08,1.222,2.08,2.652V776h-1.04v-3.445
			c0-0.988-0.078-1.872-1.287-1.872c-1.43,0-1.521,1.326-1.521,2.418V776h-1.04v-6.11h1.04V770.631z"/>
	</g>
	<g opacity="0.75">
		<path fill="#CCCCCC" d="M303.468,447.123l-0.778-5.949l5.95-0.777l0.777,5.949L303.468,447.123z M301.913,435.225l-0.778-5.949
			l5.949-0.778l0.778,5.95L301.913,435.225z M300.357,423.326l-0.778-5.949l5.949-0.778l0.778,5.949L300.357,423.326z
			 M298.802,411.427l-0.778-5.949l5.949-0.778l0.778,5.949L298.802,411.427z M297.246,399.528l-0.777-5.95l5.949-0.777l0.777,5.95
			L297.246,399.528z M295.691,387.63l-0.778-5.949l5.949-0.778l0.778,5.949L295.691,387.63z M294.135,375.73l-0.777-5.949
			l5.949-0.777l0.777,5.949L294.135,375.73z M292.58,363.832l-0.778-5.95l5.949-0.777l0.778,5.95L292.58,363.832z M291.025,351.934
			l-0.778-5.949l5.949-0.778l0.778,5.949L291.025,351.934z M289.469,340.035l-0.778-5.949l5.949-0.778l0.778,5.949L289.469,340.035z
			 M287.914,328.136l-0.778-5.95l5.949-0.777l0.778,5.95L287.914,328.136z M286.358,316.237l-0.778-5.949l5.949-0.778l0.778,5.949
			L286.358,316.237z M284.803,304.338l-0.778-5.949l5.949-0.778l0.778,5.949L284.803,304.338z"/>
	</g>
	<g opacity="0.75">
		<path fill="#CCCCCC" d="M317.137,450.986l-3.711-4.715l4.715-3.711l3.711,4.715L317.137,450.986z M326.567,443.564l-3.713-4.715
			l4.714-3.712l3.713,4.715L326.567,443.564z M335.995,436.142l-3.711-4.714l4.714-3.711l3.711,4.714L335.995,436.142z
			 M345.424,428.718l-3.711-4.714l4.714-3.711l3.711,4.714L345.424,428.718z M354.853,421.296l-3.711-4.715l4.715-3.711l3.711,4.715
			L354.853,421.296z M364.281,413.873l-3.711-4.715l4.715-3.711l3.711,4.715L364.281,413.873z M373.71,406.451l-3.711-4.715
			l4.715-3.711l3.711,4.715L373.71,406.451z M383.139,399.028l-3.711-4.715l4.715-3.711l3.711,4.715L383.139,399.028z
			 M392.568,391.604l-3.711-4.714l4.714-3.711l3.711,4.714L392.568,391.604z M401.997,384.182l-3.711-4.715l4.714-3.711l3.711,4.715
			L401.997,384.182z M411.426,376.759l-3.711-4.714l4.714-3.711l3.711,4.714L411.426,376.759z M420.854,369.337l-3.711-4.715
			l4.715-3.711l3.711,4.715L420.854,369.337z M430.283,361.914l-3.711-4.715l4.715-3.711l3.711,4.715L430.283,361.914z
			 M439.712,354.492l-3.711-4.715l4.715-3.711l3.711,4.715L439.712,354.492z M449.141,347.069l-3.711-4.715l4.715-3.711l3.711,4.715
			L449.141,347.069z"/>
	</g>
	<g opacity="0.75">
		<path fill="#CCCCCC" d="M481.151,590.362l-4.726-3.697l3.697-4.725l4.726,3.697L481.151,590.362z M471.7,582.969l-4.726-3.696
			l3.697-4.727l4.726,3.696L471.7,582.969z M462.249,575.574l-4.726-3.697l3.697-4.725l4.726,3.697L462.249,575.574z
			 M452.798,568.18l-4.726-3.697l3.697-4.725l4.726,3.697L452.798,568.18z M443.347,560.786l-4.726-3.696l3.697-4.727l4.726,3.696
			L443.347,560.786z M433.896,553.392l-4.726-3.697l3.697-4.725l4.726,3.697L433.896,553.392z M424.444,545.997l-4.726-3.697
			l3.697-4.725l4.726,3.697L424.444,545.997z M414.993,538.604l-4.726-3.696l3.697-4.727l4.726,3.696L414.993,538.604z
			 M405.541,531.209l-4.726-3.697l3.697-4.725l4.726,3.697L405.541,531.209z M396.09,523.814l-4.726-3.697l3.697-4.725l4.726,3.697
			L396.09,523.814z M386.639,516.421l-4.726-3.696l3.697-4.727l4.726,3.696L386.639,516.421z M377.188,509.026l-4.726-3.697
			l3.697-4.725l4.726,3.697L377.188,509.026z M367.736,501.632l-4.726-3.697l3.697-4.725l4.726,3.697L367.736,501.632z
			 M358.285,494.238l-4.726-3.696l3.697-4.727l4.726,3.696L358.285,494.238z M348.834,486.844l-4.726-3.697l3.697-4.725l4.726,3.697
			L348.834,486.844z M339.383,479.449l-4.726-3.697l3.697-4.725l4.726,3.697L339.383,479.449z M329.932,472.056l-4.726-3.696
			l3.697-4.727l4.726,3.696L329.932,472.056z M320.48,464.661l-4.726-3.697l3.697-4.725l4.726,3.697L320.48,464.661z"/>
	</g>
	<g opacity="0.75">
		<path fill="#CCCCCC" d="M369.178,640.018l-2.035-5.645l5.645-2.035l2.035,5.645L369.178,640.018z M365.106,628.729l-2.035-5.645
			l5.645-2.035l2.035,5.645L365.106,628.729z M361.035,617.441L359,611.797l5.645-2.035l2.035,5.645L361.035,617.441z
			 M356.964,606.152l-2.035-5.644l5.645-2.035l2.035,5.644L356.964,606.152z M352.893,594.864l-2.035-5.644l5.645-2.035l2.035,5.644
			L352.893,594.864z M348.822,583.576l-2.036-5.645l5.645-2.035l2.036,5.645L348.822,583.576z M344.751,572.288l-2.036-5.645
			l5.645-2.035l2.036,5.645L344.751,572.288z M340.68,561l-2.036-5.645l5.645-2.035l2.036,5.645L340.68,561z M336.608,549.712
			l-2.036-5.644l5.645-2.037l2.036,5.644L336.608,549.712z M332.537,538.423l-2.035-5.644l5.645-2.035l2.035,5.644L332.537,538.423z
			 M328.466,527.135l-2.035-5.645l5.645-2.035l2.035,5.645L328.466,527.135z M324.395,515.847l-2.035-5.645l5.645-2.035l2.035,5.645
			L324.395,515.847z M320.323,504.559l-2.035-5.645l5.645-2.035l2.035,5.645L320.323,504.559z M316.252,493.27l-2.035-5.644
			l5.645-2.035l2.035,5.644L316.252,493.27z M312.181,481.981l-2.035-5.644l5.645-2.035l2.035,5.644L312.181,481.981z
			 M308.11,470.693l-2.036-5.645l5.644-2.035l2.036,5.645L308.11,470.693z"/>
	</g>
	<g>
		<path fill="#CC0000" d="M385.797,447.602c0,44.799-35.398,78.599-78.998,78.599S227.8,492.4,227.8,447.602
			c0-43.2,35.8-78.599,78.999-78.599S385.797,404.402,385.797,447.602z M366.998,447.602c0-33.2-24.8-61-60.199-61
			s-60.199,27.8-60.199,61c0,34.398,27.6,60.998,60.199,60.998S366.998,482,366.998,447.602z"/>
	</g>
	<g>
		<path d="M82.057,587.791c0,5.123-3.674,8.734-8.755,8.734s-8.755-3.611-8.755-8.734c0-4.787,4.199-8.146,8.755-8.146
			S82.057,583.004,82.057,587.791z M68.829,587.812c0,2.729,2.016,4.724,4.472,4.724s4.472-1.994,4.472-4.724
			c0-2.184-2.016-4.179-4.472-4.179S68.829,585.628,68.829,587.812z"/>
		<path d="M91.866,583.654v2.646h4.514v3.485h-4.514V596H87.75v-15.831h9.091v3.485H91.866z"/>
		<path d="M107.028,583.654v2.646h4.514v3.485h-4.514V596h-4.115v-15.831h9.091v3.485H107.028z"/>
		<path d="M122.189,596h-4.115v-15.831h4.115V596z"/>
		<path d="M139.975,585.48c-0.84-1.133-2.205-1.742-3.611-1.742c-2.52,0-4.22,1.932-4.22,4.389c0,2.498,1.722,4.304,4.283,4.304
			c1.344,0,2.688-0.651,3.548-1.68v4.935c-1.365,0.42-2.352,0.734-3.632,0.734c-2.205,0-4.304-0.84-5.942-2.33
			c-1.743-1.575-2.541-3.633-2.541-5.984c0-2.162,0.819-4.241,2.331-5.795c1.554-1.596,3.8-2.562,6.026-2.562
			c1.323,0,2.541,0.294,3.758,0.798V585.48z"/>
		<path d="M150.413,583.654v2.646h4.64v3.485h-4.64v2.729h4.892V596h-9.007v-15.831h9.007v3.485H150.413z"/>
		<path d="M172.61,580.169h4.115l7.538,9.679h0.042v-9.679h4.115V596h-4.115l-7.538-9.7h-0.042v9.7h-4.115V580.169z"/>
		<path d="M211.604,587.791c0,5.123-3.674,8.734-8.755,8.734s-8.755-3.611-8.755-8.734c0-4.787,4.199-8.146,8.755-8.146
			S211.604,583.004,211.604,587.791z M198.376,587.812c0,2.729,2.016,4.724,4.472,4.724s4.472-1.994,4.472-4.724
			c0-2.184-2.016-4.179-4.472-4.179S198.376,585.628,198.376,587.812z"/>
		<path d="M223.597,596h-4.115v-12.346h-3.401v-3.485h10.918v3.485h-3.401V596z"/>
		<path d="M256.418,596h-5.123l-3.884-6.089h-0.042V596h-4.115v-15.831h6.152c3.128,0,5.501,1.491,5.501,4.871
			c0,2.184-1.218,4.073-3.464,4.472L256.418,596z M247.369,587.266h0.399c1.344,0,2.855-0.252,2.855-1.974s-1.512-1.974-2.855-1.974
			h-0.399V587.266z"/>
		<path d="M265.429,583.654v2.646h4.64v3.485h-4.64v2.729h4.892V596h-9.007v-15.831h9.007v3.485H265.429z"/>
		<path d="M290.207,596.986l-1.26-1.49c-1.218,0.734-2.646,1.029-4.346,1.029c-5.081,0-8.755-3.611-8.755-8.734
			c0-4.787,4.199-8.146,8.755-8.146c4.934,0,8.755,3.338,8.755,8.482c0,2.1-0.714,3.926-2.037,5.563l2.667,2.708L290.207,596.986z
			 M288.338,590.479c0.483-0.672,0.735-1.533,0.735-2.331c0-2.372-1.974-4.515-4.451-4.515c-2.457,0-4.493,1.995-4.493,4.179
			c0,2.729,2.037,4.724,4.493,4.724c0.42,0,0.84-0.062,1.26-0.209l-2.541-2.52l3.884-0.483L288.338,590.479z"/>
		<path d="M312.781,580.169v8.902c0,2.036-0.084,4.052-1.658,5.585c-1.323,1.302-3.402,1.764-5.25,1.764s-3.926-0.462-5.248-1.764
			c-1.575-1.533-1.659-3.549-1.659-5.585v-8.902h4.115v8.335c0,2.059,0.147,4.305,2.792,4.305c2.646,0,2.793-2.246,2.793-4.305
			v-8.335H312.781z"/>
		<path d="M323.283,596h-4.115v-15.831h4.115V596z"/>
		<path d="M342.916,596h-5.123l-3.884-6.089h-0.042V596h-4.115v-15.831h6.152c3.128,0,5.5,1.491,5.5,4.871
			c0,2.184-1.217,4.073-3.464,4.472L342.916,596z M333.867,587.266h0.398c1.344,0,2.855-0.252,2.855-1.974s-1.512-1.974-2.855-1.974
			h-0.398V587.266z"/>
		<path d="M351.927,583.654v2.646h4.64v3.485h-4.64v2.729h4.892V596h-9.007v-15.831h9.007v3.485H351.927z"/>
		<path d="M363.142,580.169h5.837c4.409,0,8.041,3.464,8.041,7.915S373.367,596,368.979,596h-5.837V580.169z M367.257,592.515h0.924
			c2.456,0,4.556-1.344,4.556-4.431c0-2.834-1.868-4.43-4.514-4.43h-0.966V592.515z"/>
	</g>
	<g>
		<path d="M86.11,564h-7.808l-5.919-9.279h-0.064V564h-6.271v-24.126h9.375c4.768,0,8.383,2.271,8.383,7.423
			c0,3.328-1.856,6.208-5.28,6.815L86.11,564z M72.319,550.689h0.608c2.048,0,4.352-0.385,4.352-3.008
			c0-2.624-2.304-3.008-4.352-3.008h-0.608V550.689z"/>
		<path d="M100.479,545.186v4.031h7.072v5.312h-7.072v4.16h7.456V564H94.208v-24.126h13.727v5.312H100.479z"/>
		<path d="M121.503,539.874h6.176l4.896,12.895l5.184-12.895h6.24L147.645,564h-6.271l-1.76-13.887h-0.064L133.758,564h-2.496
			l-5.536-13.887h-0.064L123.647,564h-6.24L121.503,539.874z"/>
		<path d="M179.613,551.489c0,7.807-5.6,13.311-13.343,13.311c-7.743,0-13.343-5.504-13.343-13.311
			c0-7.296,6.399-12.415,13.343-12.415C173.213,539.074,179.613,544.193,179.613,551.489z M159.454,551.521
			c0,4.16,3.072,7.2,6.815,7.2c3.744,0,6.815-3.04,6.815-7.2c0-3.327-3.071-6.367-6.815-6.367
			C162.526,545.153,159.454,548.193,159.454,551.521z"/>
		<path d="M197.246,564h-6.271v-18.814h-5.184v-5.312h16.639v5.312h-5.184V564z"/>
		<path d="M217.374,545.186v4.031h7.072v5.312h-7.072v4.16h7.456V564h-13.727v-24.126h13.727v5.312H217.374z"/>
	</g>
	<g>
	</g>
	<g>
		<path fill="#CC0000" d="M365.066,648.202h80.999v17.2h-62.198v42.199h60.398v17.199h-60.398V781.8h62.198V799h-80.999V648.202z"/>
	</g>
	<g>
		<path fill="#CC0000" d="M521.999,655h-18.8V521.402H467.4v-17.2h90.398v17.2h-35.8V655z"/>
	</g>
</g>
</svg>
